<?xml version="1.0" encoding="UTF-8" standalone="no"?>
<svg width="158px" height="34px" viewBox="0 0 158 34" version="1.1" xmlns="http://www.w3.org/2000/svg" xmlns:xlink="http://www.w3.org/1999/xlink">
    <!-- Generator: Sketch 45.2 (43514) - http://www.bohemiancoding.com/sketch -->
    <title>atoms/logo/clr</title>
    <desc>Created with Sketch.</desc>
    <defs></defs>
    <g id="Symbols" stroke="none" stroke-width="1" fill="none" fill-rule="evenodd">
        <g id="atoms/logo/clr">
            <path d="M58.6241085,10.2641422 L61.7985475,10.2641422 L69.1744499,19.8893129 L69.1744499,10.2641422 L72.5356206,10.2641422 L72.5356206,25.9634497 L69.6412792,25.9634497 L62.0786451,15.964486 L62.0786451,25.9634497 L58.6241085,25.9634497 L58.6241085,10.2641422 L58.6241085,10.2641422 Z M74.869767,19.9827612 L74.869767,19.9827612 C74.869767,16.5251756 77.6707426,13.7217278 81.4053767,13.7217278 C85.1400108,13.7217278 87.8476206,16.5251756 87.8476206,19.8893129 L87.8476206,19.8893129 C87.8476206,23.3468985 85.046645,26.1503462 81.3120108,26.1503462 C77.6707426,26.2437945 74.869767,23.4403467 74.869767,19.9827612 L74.869767,19.9827612 Z M84.4864498,19.9827612 L84.4864498,19.9827612 C84.4864498,18.2072442 83.1793279,16.6186238 81.3120108,16.6186238 C79.3513279,16.6186238 78.2309377,18.113796 78.2309377,19.8893129 L78.2309377,19.8893129 C78.2309377,21.6648298 79.5380596,23.2534502 81.4053767,23.2534502 C83.3660596,23.2534502 84.4864498,21.7582781 84.4864498,19.9827612 L84.4864498,19.9827612 Z M89.8083035,13.9086243 L93.1694742,13.9086243 L93.1694742,16.3382791 C93.8230351,14.6562104 94.9434254,13.6282795 96.9974742,13.7217278 L96.9974742,17.2727616 L96.9041083,17.2727616 C94.6633278,17.2727616 93.26284,18.6744855 93.26284,21.4779333 L93.26284,25.9634497 L89.9016693,25.9634497 L89.9016693,13.9086243 L89.8083035,13.9086243 Z M97.9311327,19.9827612 L97.9311327,19.9827612 C97.9311327,15.964486 100.545377,13.7217278 103.439718,13.7217278 C105.213669,13.7217278 106.334059,14.5627621 107.174352,15.4972447 L107.174352,9.61000441 L110.535523,9.61000441 L110.535523,25.9634497 L107.174352,25.9634497 L107.174352,24.2813811 C106.334059,25.4027602 105.213669,26.2437945 103.439718,26.2437945 C100.638742,26.1503462 97.9311327,24.0010363 97.9311327,19.9827612 L97.9311327,19.9827612 Z M107.267718,19.9827612 L107.267718,19.9827612 C107.267718,17.9268995 105.960596,16.6186238 104.373377,16.6186238 C102.786157,16.6186238 101.479035,17.9268995 101.479035,19.9827612 L101.479035,19.9827612 C101.479035,21.9451746 102.786157,23.3468985 104.373377,23.3468985 C105.960596,23.3468985 107.267718,21.9451746 107.267718,19.9827612 L107.267718,19.9827612 Z M112.029377,10.2641422 L115.857376,10.2641422 L119.965474,21.2910368 L124.073572,10.2641422 L127.808206,10.2641422 L121.459328,26.056898 L118.378255,26.056898 L112.029377,10.2641422 L112.029377,10.2641422 Z M129.488791,10.2641422 L135.931035,10.2641422 C139.665669,10.2641422 141.906449,12.5069004 141.906449,15.6841412 L141.906449,15.6841412 C141.906449,19.3286233 139.105474,21.1975885 135.557571,21.1975885 L132.943328,21.1975885 L132.943328,25.8700015 L129.488791,25.8700015 L129.488791,10.2641422 L129.488791,10.2641422 Z M135.650937,18.2072442 C137.331523,18.2072442 138.358547,17.1793134 138.358547,15.8710378 L138.358547,15.8710378 C138.358547,14.2824174 137.238157,13.5348313 135.557571,13.5348313 L132.849962,13.5348313 L132.849962,18.3006925 L135.650937,18.3006925 L135.650937,18.2072442 Z M143.867132,10.2641422 L147.041571,10.2641422 L154.417474,19.8893129 L154.417474,10.2641422 L157.778645,10.2641422 L157.778645,25.9634497 L154.884303,25.9634497 L147.321669,15.964486 L147.321669,25.9634497 L143.960498,25.9634497 L143.960498,10.2641422 L143.867132,10.2641422 Z" id="logotype" fill="#151922"></path>
            <path d="M14.8451706,16.6186238 L19.1399999,22.9731054 L17.7395121,18.2072442 L22.7812682,10.8248318 L30.9974632,22.9731054 L29.5969754,18.2072442 L30.6239998,16.7120721 L42.3880973,34 C45.3758046,28.7668975 46.402829,22.2255194 44.2554144,15.4037965 C42.1079997,8.58207356 36.879512,3.2555228 30.1571705,1.19966111 C14.4717072,-3.84654488 0,7.74103923 0,22.5993124 C0,26.7110358 1.12039024,30.5424144 2.9877073,33.8131035 L14.8451706,16.6186238 L14.8451706,16.6186238 Z" id="logomark" fill="#4F50FF"></path>
        </g>
    </g>
</svg>