<?xml version="1.0" encoding="UTF-8" standalone="no"?>
<svg width="128px" height="108px" viewBox="0 0 128 108" version="1.1" xmlns="http://www.w3.org/2000/svg" xmlns:xlink="http://www.w3.org/1999/xlink">
    <!-- Generator: Sketch 45.2 (43514) - http://www.bohemiancoding.com/sketch -->
    <title>nordvpn-logo-vertical-colorful</title>
    <desc>Created with Sketch.</desc>
    <defs></defs>
    <g id="Page-1" stroke="none" stroke-width="1" fill="none" fill-rule="evenodd">
        <g id="nordvpn-logo-vertical-colorful" fill-rule="nonzero">
            <path d="M-4.19220214e-13,86.8651685 L4.09792844,86.8651685 L13.6195857,99.5955056 L13.6195857,86.8651685 L17.9585687,86.8651685 L17.9585687,107.629213 L14.2222222,107.629213 L4.45951036,94.4044944 L4.45951036,107.629213 L-4.19220214e-13,107.629213 L-4.19220214e-13,86.8651685 L-4.19220214e-13,86.8651685 Z M20.9717514,99.7191011 L20.9717514,99.7191011 C20.9717514,95.1460674 24.5875706,91.4382022 29.4086629,91.4382022 C34.2297552,91.4382022 37.7250471,95.1460674 37.7250471,99.5955056 L37.7250471,99.5955056 C37.7250471,104.168539 34.1092279,107.876404 29.2881356,107.876404 C24.5875706,108 20.9717514,104.292135 20.9717514,99.7191011 L20.9717514,99.7191011 Z M33.386064,99.7191011 L33.386064,99.7191011 C33.386064,97.3707865 31.6986817,95.2696629 29.2881356,95.2696629 C26.7570621,95.2696629 25.3107345,97.247191 25.3107345,99.5955056 L25.3107345,99.5955056 C25.3107345,101.94382 26.9981168,104.044944 29.4086629,104.044944 C31.9397363,104.044944 33.386064,102.067416 33.386064,99.7191011 L33.386064,99.7191011 Z M40.2561205,91.6853933 L44.5951036,91.6853933 L44.5951036,94.8988764 C45.4387947,92.6741573 46.8851224,91.3146067 49.5367232,91.4382022 L49.5367232,96.1348315 L49.4161959,96.1348315 C46.5235405,96.1348315 44.7156309,97.988764 44.7156309,101.696629 L44.7156309,107.629213 L40.3766478,107.629213 L40.3766478,91.6853933 L40.2561205,91.6853933 Z M50.7419962,99.7191011 L50.7419962,99.7191011 C50.7419962,94.4044944 54.1167608,91.4382022 57.8531073,91.4382022 C60.1431262,91.4382022 61.5894539,92.5505618 62.6741996,93.7865169 L62.6741996,86 L67.0131827,86 L67.0131827,107.629213 L62.6741996,107.629213 L62.6741996,105.404494 C61.5894539,106.88764 60.1431262,108 57.8531073,108 C54.2372881,107.876404 50.7419962,105.033708 50.7419962,99.7191011 L50.7419962,99.7191011 Z M62.7947269,99.7191011 L62.7947269,99.7191011 C62.7947269,97 61.1073446,95.2696629 59.0583804,95.2696629 C57.0094162,95.2696629 55.3220339,97 55.3220339,99.7191011 L55.3220339,99.7191011 C55.3220339,102.314607 57.0094162,104.168539 59.0583804,104.168539 C61.1073446,104.168539 62.7947269,102.314607 62.7947269,99.7191011 L62.7947269,99.7191011 Z M68.9416196,86.8651685 L73.8832392,86.8651685 L79.1864407,101.449438 L84.4896422,86.8651685 L89.3107345,86.8651685 L81.1148776,107.752809 L77.1374765,107.752809 L68.9416196,86.8651685 L68.9416196,86.8651685 Z M91.480226,86.8651685 L99.7966102,86.8651685 C104.617702,86.8651685 107.510358,89.8314607 107.510358,94.0337079 L107.510358,94.0337079 C107.510358,98.8539326 103.894539,101.325843 99.3145009,101.325843 L95.9397363,101.325843 L95.9397363,107.505618 L91.480226,107.505618 L91.480226,86.8651685 L91.480226,86.8651685 Z M99.4350282,97.3707865 C101.60452,97.3707865 102.93032,96.011236 102.93032,94.2808989 L102.93032,94.2808989 C102.93032,92.1797753 101.483992,91.1910112 99.3145009,91.1910112 L95.819209,91.1910112 L95.819209,97.494382 L99.4350282,97.494382 L99.4350282,97.3707865 Z M110.041431,86.8651685 L114.13936,86.8651685 L123.661017,99.5955056 L123.661017,86.8651685 L128,86.8651685 L128,107.629213 L124.263653,107.629213 L114.500942,94.4044944 L114.500942,107.629213 L110.161959,107.629213 L110.161959,86.8651685 L110.041431,86.8651685 Z" id="logotype" fill="#151922"></path>
            <path d="M49.1415655,30.3045493 L56.9938423,41.8921335 L54.4333172,33.2014454 L63.6512074,19.7393991 L78.6729544,41.8921335 L76.1124293,33.2014454 L77.9901477,30.474955 L99.4985581,62 C104.961011,52.4572837 106.83873,40.5288883 102.912591,28.0892759 C98.9864531,15.6496636 89.4271595,5.93654158 77.1366393,2.18761731 C48.4587588,-7.01428772 22,14.1160127 22,41.2105109 C22,48.7083594 24.04842,55.694991 27.4624534,61.6591887 L49.1415655,30.3045493 L49.1415655,30.3045493 Z" id="logomark" fill="#4F50FF"></path>
        </g>
    </g>
</svg>